<svg width="32" height="32" viewBox="0 0 32 32" fill="none" xmlns="http://www.w3.org/2000/svg">
<path d="M12.31 16.33C11.76 16.33 11.32 16.77 11.32 17.32C11.32 17.86 11.76 18.31 12.31 18.31C12.86 18.31 13.3 17.87 13.3 17.32C13.3 16.78 12.85 16.33 12.31 16.33Z" fill="#312A82"/>
<path d="M19.69 16.33C19.15 16.33 18.7 16.77 18.7 17.32C18.7 17.86 19.14 18.31 19.69 18.31C20.24 18.31 20.68 17.87 20.68 17.32C20.68 16.78 20.24 16.33 19.69 16.33Z" fill="#312A82"/>
<path d="M25.25 11.12H16.6V9.06C17.73 8.79 18.58 7.78 18.58 6.57C18.58 5.15 17.42 4 16 4C14.58 4 13.42 5.15 13.42 6.57C13.42 7.78 14.27 8.79 15.4 9.06V11.13H6.75002C5.87002 11.13 5.15002 11.85 5.15002 12.73V26.4C5.15002 27.05 5.52002 27.62 6.13002 27.87C6.33002 27.96 6.55002 28 6.76002 28C7.16002 28 7.56002 27.84 7.87002 27.54L11.56 23.96C11.64 23.89 11.74 23.85 11.84 23.85H25.25C26.13 23.85 26.85 23.13 26.85 22.25V12.73C26.85 11.84 26.13 11.12 25.25 11.12ZM14.62 6.57C14.62 5.82 15.24 5.2 16 5.2C16.76 5.2 17.38 5.81 17.38 6.57C17.38 7.33 16.76 7.93 16 7.93C15.24 7.93 14.62 7.32 14.62 6.57ZM25.65 22.25C25.65 22.47 25.47 22.65 25.25 22.65H11.84C11.42 22.65 11.03 22.81 10.73 23.1L7.04002 26.68C6.87002 26.85 6.68002 26.79 6.61002 26.76C6.54002 26.73 6.36002 26.63 6.36002 26.39V12.72C6.36002 12.5 6.54002 12.32 6.76002 12.32H25.26C25.48 12.32 25.66 12.5 25.66 12.72V22.25H25.65Z" fill="#312A82"/>
</svg>
