<svg width="48" height="48" viewBox="0 0 48 48" fill="none" xmlns="http://www.w3.org/2000/svg">
<path d="M5.00001 41.1501C4.92001 41.1501 4.85001 41.14 4.77001 41.12C4.31001 41.0201 3.99001 40.6001 4.00001 40.1301C4.17001 29.8801 6.78001 22.4801 11.76 18.1101C16.88 13.6201 23.06 13.5801 26.29 13.9601C26.44 13.9801 26.54 13.9101 26.59 13.8701C26.64 13.8301 26.72 13.7301 26.73 13.5701L26.77 9.24005C26.78 8.28005 27.33 7.44005 28.22 7.06005C29.1 6.68005 30.1 6.85005 30.8 7.51005L43.24 19.0601C43.72 19.5 44 20.14 44 20.8C44 21.47 43.72 22.1101 43.23 22.5601L30.81 34.1C30.1 34.76 29.1 34.9301 28.22 34.5401C27.33 34.1501 26.78 33.3101 26.78 32.3401V28.4501C26.78 28.2401 26.6 28.0601 26.39 28.0501C22.1 27.9101 17.97 28.7601 14.47 30.5401C13.13 31.2201 10.9 32.3501 8.92001 34.7401C7.61001 36.3201 6.98001 37.9601 6.46001 39.2701C6.27001 39.7601 6.10001 40.2001 5.92001 40.5801C5.74001 40.93 5.38001 41.1501 5.00001 41.1501ZM23.79 15.8201C20.76 15.8201 16.61 16.5201 13.07 19.6201C9.41001 22.8301 7.15001 27.9501 6.34001 34.8801C6.64001 34.4101 6.97001 33.9401 7.36001 33.4701C9.61001 30.7501 12.07 29.5001 13.55 28.7601C17.36 26.8301 21.81 25.9001 26.44 26.0601C27.72 26.1001 28.77 27.18 28.77 28.4601V32.35C28.77 32.58 28.92 32.6801 29.01 32.7201C29.1 32.7601 29.28 32.8001 29.44 32.6501L41.87 21.1001C41.98 21.0001 42 20.8701 42 20.8101C42 20.7401 41.98 20.6201 41.87 20.5201L29.43 8.96005C29.27 8.81005 29.09 8.85005 29 8.89005C28.91 8.93005 28.76 9.03005 28.76 9.25005L28.72 13.5901C28.71 14.2701 28.42 14.9201 27.91 15.3701C27.41 15.8201 26.73 16.0301 26.06 15.9501C25.42 15.8701 24.65 15.8201 23.79 15.8201Z" fill="#0F0F19"/>
</svg>
